<svg xmlns="http://www.w3.org/2000/svg" width="16" viewBox="0 0 1024 1024">
    <g style="">
        <rect fill="none" id="canvas_background" height="1026" width="1026" y="-1" x="-1" />
        <path
            d="m832,754s0,-306 0,-402s-96,-192 -192,-192c-64,0 -64,0 -64,0l0,-128l-192,192l192,192l0,-128s32,0 64,0s64,32 64,64s0,402 0,402c-38,22 -64,63 -64,110c0,71 57,128 128,128s128,-57 128,-128c0,-47 -26,-88 -64,-110zm-64,174c-35,0 -64,-29 -64,-64s29,-64 64,-64s64,29 64,64s-29,64 -64,64zm-512,-832c-71,0 -128,57 -128,128c0,47 26,88 64,110l0,419c-38,22 -64,63 -64,110c0,71 57,128 128,128s128,-57 128,-128c0,-47 -26,-88 -64,-110l0,-419c38,-22 64,-63 64,-110c0,-71 -57,-128 -128,-128zm0,832c-35,0 -64,-29 -64,-64s29,-64 64,-64s64,29 64,64s-29,64 -64,64zm0,-640c-35,0 -64,-29 -64,-64s29,-64 64,-64s64,29 64,64s-29,64 -64,64z"
            class="jp-icon3" fill="#616161" />
    </g>
</svg>